<svg xmlns="http://www.w3.org/2000/svg" xmlns:xlink="http://www.w3.org/1999/xlink" viewBox="0 0 50.86 59.95"><defs><style>.cls-1,.cls-2,.cls-3,.cls-4{stroke:#00001f;stroke-miterlimit:10;stroke-width:0.25px;}.cls-1{fill:url(#linear-gradient);}.cls-2{fill:url(#linear-gradient-2);}.cls-3{fill:url(#linear-gradient-3);}.cls-4{fill:url(#linear-gradient-4);}</style><linearGradient id="linear-gradient" x1="48.32" y1="8.53" x2="19.45" y2="23.29" gradientUnits="userSpaceOnUse"><stop offset="0.01" stop-color="#006892"/><stop offset="1" stop-color="#00354a"/></linearGradient><linearGradient id="linear-gradient-2" x1="56.38" y1="24.3" x2="27.51" y2="39.05" xlink:href="#linear-gradient"/><linearGradient id="linear-gradient-3" x1="51.56" y1="14.87" x2="22.69" y2="29.63" xlink:href="#linear-gradient"/><linearGradient id="linear-gradient-4" x1="52.98" y1="17.65" x2="24.11" y2="32.41" xlink:href="#linear-gradient"/></defs><title>logo</title><g id="Layer_2" data-name="Layer 2"><g id="Layer_1-2" data-name="Layer 1"><path class="cls-1" d="M50.74,15.5V27a.93.93,0,0,1-.93.93H41.66a.93.93,0,0,1-.92-.93V21.43a.91.91,0,0,0-.46-.79L25.91,12.11a1,1,0,0,0-.95,0L10.58,20.64a.9.9,0,0,0-.45.79V27a.93.93,0,0,1-.93.93H1.05A.93.93,0,0,1,.13,27V15.5a.9.9,0,0,1,.45-.79L25,.25a1,1,0,0,1,.95,0L50.28,14.71A.91.91,0,0,1,50.74,15.5Z"/><path class="cls-2" d="M41.66,32.88h8.15a.93.93,0,0,1,.93.92V44.45a.91.91,0,0,1-.46.79L25.91,59.7a1,1,0,0,1-.95,0L.58,45.24a.9.9,0,0,1-.45-.79V33.8a.92.92,0,0,1,.92-.92H9.2a.93.93,0,0,1,.93.92v4.73a.9.9,0,0,0,.45.79L25,47.85a1,1,0,0,0,.95,0l14.37-8.53a.91.91,0,0,0,.46-.79V33.8A.92.92,0,0,1,41.66,32.88Z"/><path class="cls-3" d="M15.53,23.57l6-3.56a.92.92,0,0,1,1.39.79V39.15a.92.92,0,0,1-1.39.8l-6-3.57a.9.9,0,0,1-.45-.79V24.36A.91.91,0,0,1,15.53,23.57Z"/><path class="cls-4" d="M35.79,24.36V35.59a.91.91,0,0,1-.46.79l-6,3.57a.93.93,0,0,1-1.4-.8V20.8a.93.93,0,0,1,1.4-.79l6,3.56A.91.91,0,0,1,35.79,24.36Z"/></g></g></svg>