<svg xmlns="http://www.w3.org/2000/svg" xmlns:xlink="http://www.w3.org/1999/xlink" viewBox="0 0 50.61 59.7"><defs><style>.cls-1{fill:url(#linear-gradient);}.cls-2{fill:url(#linear-gradient-2);}.cls-3{fill:url(#linear-gradient-3);}.cls-4{fill:url(#linear-gradient-4);}</style><linearGradient id="linear-gradient" x1="50.54" y1="11.39" x2="13.89" y2="18.37" gradientUnits="userSpaceOnUse"><stop offset="0.01" stop-color="#4040b4"/><stop offset="1" stop-color="#2c2cb4"/></linearGradient><linearGradient id="linear-gradient-2" x1="55.62" y1="38.14" x2="18.98" y2="45.11" xlink:href="#linear-gradient"/><linearGradient id="linear-gradient-3" x1="52.92" y1="23.95" x2="16.28" y2="30.92" xlink:href="#linear-gradient"/><linearGradient id="linear-gradient-4" x1="53.16" y1="25.21" x2="16.52" y2="32.18" xlink:href="#linear-gradient"/></defs><title>logo</title><g id="Layer_2" data-name="Layer 2"><g id="Layer_1-2" data-name="Layer 1"><path class="cls-1" d="M50.61,15.38V26.83a.92.92,0,0,1-.92.92H41.53a.92.92,0,0,1-.92-.92V21.31a.93.93,0,0,0-.45-.8L25.78,12a.93.93,0,0,0-.94,0L10.45,20.51a.93.93,0,0,0-.45.8v5.52a.92.92,0,0,1-.92.92H.92A.92.92,0,0,1,0,26.83V15.38a.93.93,0,0,1,.45-.8L24.84.13a.93.93,0,0,1,.94,0L50.16,14.58A.93.93,0,0,1,50.61,15.38Z"/><path class="cls-2" d="M41.53,32.75h8.16a.92.92,0,0,1,.92.92V44.32a.93.93,0,0,1-.45.8L25.78,59.57a.93.93,0,0,1-.94,0L.45,45.12a.93.93,0,0,1-.45-.8V33.67a.92.92,0,0,1,.92-.92H9.08a.92.92,0,0,1,.92.92V38.4a.93.93,0,0,0,.45.8l14.39,8.52a.93.93,0,0,0,.94,0L40.16,39.2a.93.93,0,0,0,.45-.8V33.67A.92.92,0,0,1,41.53,32.75Z"/><path class="cls-3" d="M15.4,23.44l6-3.56a.92.92,0,0,1,1.39.8V39a.92.92,0,0,1-1.39.79l-6-3.56a.93.93,0,0,1-.45-.8V24.24A.93.93,0,0,1,15.4,23.44Z"/><path class="cls-4" d="M35.66,24.24V35.46a.93.93,0,0,1-.45.8l-6,3.56A.92.92,0,0,1,27.81,39V20.68a.92.92,0,0,1,1.39-.79l6,3.55A.93.93,0,0,1,35.66,24.24Z"/></g></g></svg>